<?xml version="1.0" encoding="UTF-8" standalone="no"?>
<!-- Created with Inkscape (http://www.inkscape.org/) -->

<svg
   xmlns:dc="http://purl.org/dc/elements/1.1/"
   xmlns:cc="http://creativecommons.org/ns#"
   xmlns:rdf="http://www.w3.org/1999/02/22-rdf-syntax-ns#"
   xmlns:svg="http://www.w3.org/2000/svg"
   xmlns="http://www.w3.org/2000/svg"
   xmlns:sodipodi="http://sodipodi.sourceforge.net/DTD/sodipodi-0.dtd"
   xmlns:inkscape="http://www.inkscape.org/namespaces/inkscape"
   version="1.1"
   id="svg815"
   xml:space="preserve"
   width="512"
   height="512"
   viewBox="0 0 511.99999 512"
   sodipodi:docname="merck_logo_circle.svg"
   inkscape:version="0.92.2 (5c3e80d, 2017-08-06)"
   inkscape:export-filename="G:\My Drive\_Projects\2018-05 Boston Engg MilliporeSigma\2. Design\Artwork\Merck_logo_circle.png"
   inkscape:export-xdpi="96"
   inkscape:export-ydpi="96"><metadata
     id="metadata821"><rdf:RDF><cc:Work
         rdf:about=""><dc:format>image/svg+xml</dc:format><dc:type
           rdf:resource="http://purl.org/dc/dcmitype/StillImage" /><dc:title></dc:title></cc:Work></rdf:RDF></metadata><defs
     id="defs819"><clipPath
       clipPathUnits="userSpaceOnUse"
       id="clipPath833"><path
         d="M 0,0 H 841.89 V 595.276 H 0 Z"
         id="path831"
         inkscape:connector-curvature="0" /></clipPath><clipPath
       clipPathUnits="userSpaceOnUse"
       id="clipPath845"><path
         d="m 326.216,595.275 -37.634,-35.382 h -0.021 C 270.672,543.076 246.591,533.64 220.1,533.64 v 0 c -27.595,0 -52.575,10.309 -70.665,28.382 v 0 c 0,0 -25.974,24.4 -35.4,33.253 v 0 H 45.355 V 467.548 c 0,-12.704 9.628,-23.159 21.987,-24.471 v 0 H 84.89 c 1.738,0.127 3.385,0.386 4.406,0.913 v 0 c 1.6,0.869 1.592,2.576 1.592,4.16 v 0 48.787 c 0,12.811 10.464,23.375 23.074,23.375 v 0 c 23.476,0 40.3,-20.108 55.513,-33.537 v 0 c 18.628,-16.444 32.977,-32.302 50.623,-32.302 v 0 c 17.648,0 31.997,15.858 50.625,32.302 v 0 c 15.213,13.429 32.04,33.537 55.516,33.537 v 0 c 12.537,0 22.956,-10.449 23.066,-23.166 v 0 -0.013 c 0,-8.019 0.006,-29.39 0.006,-29.585 v 0 c 0,-12.704 9.626,-23.159 21.984,-24.471 v 0 h 17.529 c 1.744,0.126 3.4,0.384 4.425,0.913 v 0 c 1.603,0.869 1.595,2.576 1.595,4.16 v 0 c 0,13.154 -0.003,136.373 -0.003,137.534 v 0 c 0,3.403 -0.691,6.644 -1.939,9.591 v 0 z"
         id="path843"
         inkscape:connector-curvature="0" /></clipPath><clipPath
       clipPathUnits="userSpaceOnUse"
       id="clipPath863"><path
         d="M 0,0 H 841.89 V 595.276 H 0 Z"
         id="path861"
         inkscape:connector-curvature="0" /></clipPath><clipPath
       clipPathUnits="userSpaceOnUse"
       id="clipPath933"><path
         d="M 0,0 H 841.89 V 595.276 H 0 Z"
         id="path931"
         inkscape:connector-curvature="0" /></clipPath><clipPath
       clipPathUnits="userSpaceOnUse"
       id="clipPath833-9"><path
         d="M 0,0 H 841.89 V 595.275 H 0 Z"
         id="path831-6"
         inkscape:connector-curvature="0" /></clipPath></defs><sodipodi:namedview
     pagecolor="#ffffff"
     bordercolor="#666666"
     borderopacity="1"
     objecttolerance="10"
     gridtolerance="10"
     guidetolerance="10"
     inkscape:pageopacity="0"
     inkscape:pageshadow="2"
     inkscape:window-width="2160"
     inkscape:window-height="1346"
     id="namedview817"
     showgrid="false"
     inkscape:zoom="1.0306143"
     inkscape:cx="345.8438"
     inkscape:cy="233.7001"
     inkscape:window-x="-11"
     inkscape:window-y="-11"
     inkscape:window-maximized="1"
     inkscape:current-layer="g823"
     fit-margin-top="0"
     fit-margin-left="0"
     fit-margin-right="0"
     fit-margin-bottom="0" /><g
     id="g823"
     inkscape:groupmode="layer"
     inkscape:label="Merck Brand_Identity_Principles_EN"
     transform="matrix(1.3333333,0,0,-1.3333333,-1044.0375,598.35623)"><circle
       style="opacity:1;fill:#ee1a97;fill-opacity:1;stroke:none;stroke-width:3.78837848;stroke-linecap:round;stroke-linejoin:round;stroke-miterlimit:4;stroke-dasharray:none;stroke-opacity:1"
       id="path916"
       cx="975.02814"
       cy="-256.76718"
       r="192"
       transform="scale(1,-1)" /><g
       id="g936"
       transform="matrix(1.2426232,0,0,1.2426232,-254.2987,-31.755163)"><g
         transform="matrix(0.58359272,0,0,0.58359272,1069.2265,277.02726)"
         id="g865"><path
           inkscape:connector-curvature="0"
           id="path867"
           style="fill:#fbc707;fill-opacity:1;fill-rule:nonzero;stroke:none"
           d="M 0,0 C 3.064,2.127 6.403,3.854 9.927,4.957 8.599,4.531 7.299,4.019 6.039,3.427 3.948,2.456 1.925,1.303 0,0" /></g><g
         style="fill:#532e92;fill-opacity:1"
         transform="matrix(0.58359272,0,0,0.58359272,1090.4733,248.38855)"
         id="g869"><path
           inkscape:connector-curvature="0"
           id="path871"
           style="fill:#532e92;fill-opacity:1;fill-rule:nonzero;stroke:none"
           d="m 0,0 c -0.027,0 -0.043,-0.009 -0.07,-0.017 -0.008,0 -0.025,-0.01 -0.033,-0.01 -0.036,-0.017 -0.071,-0.027 -0.106,-0.036 -0.043,-0.016 -0.096,-0.024 -0.147,-0.043 -0.008,0 -0.025,-0.008 -0.035,-0.008 -0.025,-0.009 -0.042,-0.018 -0.069,-0.018 -0.07,-0.025 -0.131,-0.042 -0.2,-0.061 -0.018,0 -0.033,-0.008 -0.052,-0.008 C -0.78,-0.218 -0.84,-0.234 -0.9,-0.252 -0.919,-0.261 -0.936,-0.261 -0.955,-0.261 -0.963,-0.27 -0.971,-0.27 -0.979,-0.27 -1.015,-0.288 -1.05,-0.297 -1.094,-0.304 c -0.008,0 -0.008,0 -0.018,-0.009 -0.034,-0.009 -0.069,-0.017 -0.093,-0.027 -0.02,-0.009 -0.036,-0.009 -0.061,-0.017 -0.018,-0.008 -0.045,-0.008 -0.071,-0.018 -0.076,-0.025 -0.145,-0.042 -0.208,-0.06 -0.016,0 -0.034,-0.009 -0.052,-0.017 -0.061,-0.008 -0.113,-0.027 -0.157,-0.036 -0.016,-0.007 -0.033,-0.007 -0.052,-0.016 -0.008,-0.01 -0.025,-0.01 -0.034,-0.01 l 0.009,0.01 c 0.025,0.009 0.053,0.016 0.077,0.016 0.019,0.009 0.036,0.018 0.044,0.018 0.027,0.01 0.043,0.018 0.061,0.018 0.052,0.008 0.096,0.025 0.137,0.035 0.046,0.017 0.09,0.036 0.131,0.042 -4.425,-1.153 -8.939,-1.988 -13.502,-2.359 -0.436,-0.044 -0.87,-0.079 -1.303,-0.105 -0.104,-0.017 -0.198,-0.017 -0.305,-0.025 -0.277,-0.019 -0.553,-0.035 -0.833,-0.044 -0.284,-0.018 -0.57,-0.035 -0.857,-0.043 -0.175,-0.01 -0.348,-0.018 -0.522,-0.027 v 0.009 c -4.72,-0.182 -9.484,0.018 -14.18,0.459 -8.42,0.79 -17.436,3.611 -20.856,12.16 -1.857,4.643 -1.814,9.753 -0.652,14.632 0,0.008 0,0.018 0.01,0.027 0.069,0.329 0.157,0.65 0.235,0.981 0.008,0.025 0.017,0.052 0.025,0.087 0.832,3.21 2.169,6.309 3.852,9.198 0.235,0.418 0.488,0.834 0.738,1.241 0.027,0.045 0.054,0.077 0.079,0.123 0.138,0.233 0.285,0.468 0.452,0.702 2.969,4.626 6.811,8.765 11.255,12.055 0.217,0.174 0.445,0.33 0.661,0.485 0.295,0.217 0.592,0.418 0.884,0.626 2.779,1.927 5.783,3.523 8.94,4.617 0.327,0.122 0.659,0.234 0.99,0.339 0.441,0.146 0.893,0.278 1.336,0.4 0.383,0.103 0.764,0.198 1.145,0.285 0.234,0.052 0.47,0.104 0.712,0.156 h -0.131 l -26.036,0.034 c -1.31,0 -2.49,-0.511 -3.366,-1.343 l -0.009,0.033 -11.031,-10.327 -6.119,-5.737 -14.633,-13.721 c -0.199,-0.608 -0.408,-1.216 -0.615,-1.823 -0.19,-0.59 -0.4,-1.188 -0.607,-1.786 -0.21,-0.61 -0.427,-1.226 -0.644,-1.833 -0.19,-0.538 -0.382,-1.077 -0.582,-1.613 -0.683,-1.892 -1.403,-3.777 -2.151,-5.642 -0.243,-0.599 -0.478,-1.19 -0.728,-1.78 -0.485,-1.196 -0.998,-2.378 -1.53,-3.558 -0.257,-0.59 -0.519,-1.18 -0.798,-1.762 -0.71,-1.553 -1.45,-3.082 -2.22,-4.599 -0.236,-0.46 -0.468,-0.92 -0.712,-1.379 -0.025,-0.063 -0.062,-0.131 -0.096,-0.194 -0.035,-0.059 -0.06,-0.11 -0.097,-0.171 -0.242,-0.478 -0.503,-0.956 -0.762,-1.425 -0.155,-0.294 -0.313,-0.581 -0.479,-0.876 -0.13,-0.233 -0.268,-0.477 -0.407,-0.711 -0.288,-0.53 -0.588,-1.05 -0.902,-1.57 -0.303,-0.531 -0.618,-1.044 -0.928,-1.563 -0.312,-0.522 -0.634,-1.033 -0.955,-1.545 -0.729,-1.153 -1.468,-2.3 -2.231,-3.421 -0.25,-0.372 -0.503,-0.744 -0.762,-1.118 -0.748,-1.077 -1.511,-2.145 -2.283,-3.194 -2.768,-3.757 -5.721,-7.515 -9.02,-10.814 -0.008,-0.008 -0.008,-0.008 -0.016,-0.018 -0.017,-0.016 -0.033,-0.034 -0.044,-0.042 -0.415,-0.453 -0.833,-0.894 -1.258,-1.337 -0.824,-0.868 -1.657,-1.727 -2.508,-2.568 -0.025,-0.027 -0.051,-0.054 -0.069,-0.07 -12.332,-12.377 -26.894,-22.818 -43.385,-28.789 -6.371,-2.307 -13.253,-3.904 -20.161,-4.372 -0.036,-0.035 -0.07,-0.062 -0.095,-0.097 -8.308,-0.572 -16.812,0.584 -24.381,4.163 -0.337,0.161 -0.676,0.332 -1.005,0.514 -0.242,0.105 -0.487,0.236 -0.729,0.375 -0.338,0.174 -0.669,0.356 -0.998,0.546 -0.452,0.251 -0.887,0.519 -1.321,0.792 -0.433,0.259 -0.865,0.535 -1.292,0.84 -0.678,0.444 -1.346,0.931 -2.005,1.431 -2.648,2.031 -4.963,4.348 -6.97,6.863 -0.321,0.393 -0.624,0.784 -0.918,1.183 -0.27,0.356 -0.539,0.722 -0.789,1.094 -0.227,0.313 -0.444,0.634 -0.652,0.955 -0.417,0.597 -0.798,1.196 -1.171,1.822 -5.477,9.138 -7.752,19.745 -7.977,30.358 -0.017,0.365 -0.025,0.722 -0.025,1.086 -0.009,0.389 -0.009,0.772 -0.009,1.153 -0.008,0.416 0,0.833 0.017,1.251 -0.008,0.391 0.009,0.788 0.026,1.179 0.01,0.469 0.026,0.937 0.052,1.408 0.009,0.337 0.028,0.676 0.053,1.014 0.024,0.581 0.067,1.163 0.111,1.745 0.044,0.582 0.087,1.154 0.15,1.727 0.016,0.217 0.032,0.425 0.058,0.634 -3.018,2.107 -5.909,4.399 -8.66,6.855 -1.389,1.232 -2.741,2.508 -4.072,3.837 0,0 -6.681,6.299 -14.499,13.668 -0.296,0.278 -0.6,0.565 -0.897,0.841 -0.345,-0.337 -0.693,-0.675 -1.048,-1.015 -0.435,-0.407 -0.877,-0.815 -1.329,-1.224 -0.275,-0.241 -0.547,-0.484 -0.835,-0.729 -0.275,-0.25 -0.554,-0.494 -0.841,-0.72 -3.915,-3.298 -8.253,-6.128 -12.946,-8.122 -0.314,-0.131 -0.627,-0.262 -0.948,-0.392 -0.729,-0.286 -1.449,-0.555 -2.186,-0.806 -0.14,-0.043 -0.279,-0.095 -0.419,-0.141 -0.258,-0.085 -0.527,-0.164 -0.789,-0.242 -0.162,-0.051 -0.328,-0.103 -0.503,-0.147 -0.364,-0.104 -0.73,-0.207 -1.102,-0.294 -0.131,-0.046 -0.268,-0.071 -0.398,-0.106 -0.27,-0.06 -0.531,-0.121 -0.799,-0.182 -0.009,0 -0.009,0 -0.019,-0.007 -0.093,-0.009 -0.198,-0.036 -0.294,-0.061 -0.069,-0.018 -0.139,-0.027 -0.199,-0.035 -1.631,-0.357 -3.296,-0.573 -4.983,-0.652 -0.275,-0.026 -0.554,-0.034 -0.841,-0.034 -1.45,-0.044 -2.916,0.017 -4.392,0.2 -0.468,0.051 -0.945,0.121 -1.414,0.2 0,0.034 -0.009,0.058 -0.018,0.094 -5.258,0.904 -10.268,3.159 -14.398,6.735 -8.93,7.742 -13.034,19.319 -14.242,30.966 -0.07,0.6 -0.12,1.208 -0.173,1.814 -0.079,0.816 -0.131,1.64 -0.155,2.456 -0.045,0.791 -0.071,1.59 -0.089,2.387 -0.016,1.292 -0.007,2.595 0.034,3.914 l -18.293,0.027 c -0.971,0 -1.875,-0.279 -2.638,-0.765 -1.371,-0.867 -2.284,-2.395 -2.291,-4.139 l -0.097,-61.194 v -3.792 l -0.044,-26.027 -0.068,-46.738 c -0.008,-2.734 0.433,-5.356 1.257,-7.812 0.071,-0.225 0.149,-0.45 0.235,-0.675 0,-0.01 0.01,-0.016 0.01,-0.034 0.086,-0.206 0.165,-0.426 0.25,-0.634 0.01,-0.035 0.028,-0.078 0.045,-0.113 0.095,-0.235 0.189,-0.471 0.286,-0.695 0.13,-0.279 0.261,-0.557 0.388,-0.83 0.045,-0.099 0.099,-0.187 0.142,-0.281 2.959,-5.771 8.21,-10.293 14.424,-12.332 2.491,-0.824 5.086,-1.134 7.705,-1.23 l 6.171,0.005 c 0.807,0.021 1.615,0.035 2.414,0.035 h 0.72 c 1.075,-0.008 2.152,-0.024 3.228,-0.008 0.321,0 0.651,0.008 0.982,0.026 0.025,-0.01 0.043,-0.01 0.068,0 0.652,0.027 1.302,0.07 1.944,0.14 0.052,0.01 0.112,0.01 0.173,0.016 0.175,0.018 0.349,0.045 0.521,0.064 0.182,0.016 0.365,0.043 0.557,0.067 0.112,0.018 0.223,0.034 0.329,0.051 0.286,0.061 0.564,0.122 0.824,0.181 0.277,0.081 0.539,0.161 0.773,0.252 0.6,0.254 1.119,0.637 1.458,1.199 0.296,0.476 0.443,1.043 0.521,1.632 0.008,0.043 0.008,0.096 0.017,0.147 0.035,0.452 0.035,0.92 0.035,1.378 v 0.792 c -0.017,0.348 -0.028,0.685 -0.028,1.006 0.011,3.291 0.019,6.571 0.019,9.851 l 0.009,6.058 0.008,3.617 c -5.702,-1.881 -12.158,-2.584 -17.861,-0.326 -2.388,0.944 -4.53,2.437 -6.265,4.321 -0.868,0.936 -1.632,1.972 -2.275,3.072 -0.217,0.366 -1.77,3.149 -1.432,3.325 -0.234,0.667 -0.441,1.354 -0.625,2.055 -1.63,6.309 -0.694,13.028 1.362,19.224 0.097,0.34 0.217,0.669 0.34,0.998 0.112,0.348 0.243,0.685 0.373,1.033 0.113,0.321 0.233,0.642 0.364,0.963 0.225,0.584 0.471,1.164 0.712,1.729 1.711,3.973 3.872,7.759 6.389,11.28 1.258,1.76 2.61,3.462 4.034,5.089 0.721,0.813 1.45,1.612 2.206,2.384 0.293,0.313 2.17,1.831 2.072,2.17 6.795,6.597 15.485,12.098 25.003,13.453 0.61,0.087 1.225,0.155 1.841,0.199 0.114,0.008 0.217,0.018 0.331,0.035 l 0.963,0.052 c 0.338,0.018 0.677,0.026 1.015,0.018 0.261,0 0.513,0 0.764,-0.01 1.798,-0.027 3.575,-0.259 5.285,-0.746 0.114,-0.026 0.226,-0.061 0.331,-0.096 0.208,-0.061 0.407,-0.121 0.608,-0.192 1.18,-0.372 2.317,-0.867 3.4,-1.5 3.881,-2.256 6.596,-6.084 7.933,-10.327 0.557,-1.736 0.885,-3.542 1.041,-5.357 0.079,-0.848 0.114,-1.71 0.114,-2.569 0,-0.425 -0.008,-0.856 -0.025,-1.284 -0.01,-0.217 -0.018,-0.431 -0.035,-0.642 -0.018,-0.249 0.035,-0.345 0.138,-0.399 0.025,-0.01 0.052,-0.016 0.077,-0.026 0.078,-0.024 0.191,-0.051 0.331,-0.113 9.521,-3.489 17.549,-10.007 25.002,-16.698 2.473,-2.224 4.896,-4.503 7.318,-6.794 0.67,-0.636 1.336,-1.268 2.003,-1.883 1.033,-0.963 2.067,-1.927 3.107,-2.882 0.609,-0.556 1.217,-1.11 1.823,-1.659 0.269,-0.248 0.549,-0.495 0.826,-0.746 0.208,-0.182 0.416,-0.364 0.614,-0.557 0.974,-0.848 1.919,-1.707 2.865,-2.558 h 0.01 c 1.04,-0.936 2.066,-1.864 3.071,-2.793 1.034,-0.939 2.05,-1.867 3.057,-2.78 0.475,-0.433 0.954,-0.867 1.421,-1.303 2.828,-2.558 5.581,-5.022 8.298,-7.315 3.532,-2.986 6.995,-5.683 10.468,-7.947 0.347,-0.219 0.684,-0.444 1.031,-0.66 1.094,-0.672 2.204,-1.314 3.341,-1.919 4.619,-2.467 9.661,-4.2 14.919,-4.463 0.478,-0.021 0.956,-0.032 1.432,-0.032 0.384,0 0.765,0.011 1.145,0.027 0.096,0 0.201,0.005 0.296,0.005 0.303,0.017 0.608,0.035 0.911,0.065 0.417,0.032 0.833,0.077 1.251,0.128 0.137,0.016 0.277,0.032 0.417,0.051 0.728,0.096 1.458,0.227 2.186,0.372 0.286,0.061 0.574,0.131 0.859,0.193 0.033,0.01 0.061,0.016 0.096,0.026 0.163,0.032 0.32,0.078 0.478,0.123 0.311,0.07 0.623,0.155 0.927,0.241 0.087,0.027 0.174,0.043 0.261,0.07 0.313,0.085 0.617,0.182 0.92,0.289 0.27,0.085 0.527,0.171 0.788,0.256 0.272,0.086 0.53,0.174 0.791,0.279 0.243,0.088 0.487,0.182 0.729,0.278 0.06,0.027 0.111,0.043 0.165,0.059 0.469,0.192 0.938,0.393 1.408,0.599 7.01,3.152 13.797,8.436 20.931,14.679 0.079,0.069 0.149,0.144 0.225,0.224 1.468,1.285 2.927,2.569 4.384,3.869 0.096,0.091 0.19,0.177 0.286,0.252 3.592,3.248 7.307,6.656 11.204,10.095 2.786,2.448 5.625,5.121 8.55,7.853 0.163,0.157 0.328,0.321 0.484,0.478 0.347,0.322 0.685,0.643 1.033,0.945 0.513,0.471 1.034,0.947 1.545,1.423 0.148,0.14 0.303,0.279 0.461,0.418 5.676,5.217 11.697,10.413 18.275,14.486 4.525,2.796 9.306,5.051 14.419,6.405 0.13,0.043 0.26,0.085 0.397,0.128 0.061,0.027 0.122,0.043 0.184,0.043 4.147,1.33 8.384,2.397 12.679,3.222 10.632,2.049 21.567,2.533 32.363,1.561 1.331,-0.113 2.656,-0.261 3.976,-0.416 1.754,-0.209 3.505,-0.46 5.24,-0.744 0.792,-0.131 1.589,-0.273 2.38,-0.417 0.883,-0.166 1.769,-0.34 2.657,-0.522 0.111,-0.024 0.223,-0.051 0.344,-0.078 1.156,-0.243 2.301,-0.503 3.447,-0.781 0.668,-0.166 1.334,-0.332 1.998,-0.503 4.564,-1.199 9.059,-2.684 13.432,-4.463 0.079,-0.032 0.156,-0.07 0.237,-0.094 L 1.311,-3.177 V 0.372 C 0.875,0.25 0.443,0.12 0,0 m -1.971,-0.547 c -0.016,-0.01 -0.025,-0.01 -0.025,-0.01 -0.051,-0.009 -0.112,-0.025 -0.165,-0.042 0.061,0.017 0.13,0.042 0.2,0.06 h 0.017 c -0.017,-0.008 -0.017,-0.008 -0.027,-0.008" /></g><g
         transform="matrix(0.58359272,0,0,0.58359272,935.97005,227.53059)"
         id="g889"><path
           inkscape:connector-curvature="0"
           id="path891"
           style="fill:#4dc4ce;fill-opacity:1;fill-rule:nonzero;stroke:none"
           d="M 0,0 C 0,-0.19 -0.017,-0.468 -0.045,-0.902 V -0.92 c -0.487,0.192 -0.973,0.366 -1.467,0.537 -0.096,0.038 -0.2,0.062 -0.294,0.097 -0.409,0.139 -0.816,0.267 -1.233,0.38 -0.41,0.133 -0.826,0.246 -1.242,0.347 -0.008,0.011 -0.017,0.011 -0.027,0.011 -0.753,0.198 -1.509,0.372 -2.263,0.519 -0.115,0.027 -0.236,0.043 -0.348,0.07 -0.068,0.016 -0.147,0.027 -0.218,0.045 -0.277,0.059 -0.555,0.11 -0.831,0.155 C -8.03,1.25 -8.091,1.26 -8.153,1.268 H -8.17 c -0.302,0.059 -0.617,0.105 -0.919,0.147 l -0.547,0.078 c -0.043,0.008 -0.095,0.008 -0.139,0.018 -0.339,0.043 -0.685,0.078 -1.034,0.121 -0.059,0 -0.111,0 -0.172,0.019 -0.392,0.032 -0.781,0.075 -1.18,0.093 -0.097,0.008 -0.182,0.008 -0.278,0.019 -0.332,0.016 -0.669,0.032 -1.006,0.054 h -0.053 c -1.206,0.04 -2.412,0 -3.591,-0.134 -0.357,-0.032 -0.705,-0.078 -1.052,-0.139 -0.078,0 -0.164,-0.016 -0.243,-0.033 -0.329,-0.053 -0.651,-0.112 -0.972,-0.184 -0.373,-0.067 -0.746,-0.155 -1.111,-0.259 -3.845,-0.974 -7.395,-2.917 -10.337,-5.764 -4.511,-4.382 -7.141,-10.499 -7.151,-16.792 l -0.034,-27.462 c -5.564,-1.838 -11.804,-2.531 -17.392,-0.423 -4.896,1.846 -8.567,5.849 -10.311,10.761 -0.009,0.016 -0.009,0.038 -0.018,0.054 -0.234,0.666 -0.441,1.354 -0.625,2.055 -1.423,5.667 -0.877,12.366 1.362,19.224 0.106,0.329 0.217,0.669 0.34,0.998 0.112,0.348 0.243,0.685 0.373,1.033 0.113,0.321 0.233,0.642 0.364,0.963 7.631,2.777 14.919,6.796 20.699,12.575 5.832,5.814 9.832,13.244 11.733,21.247 3.065,1.24 6.431,2.169 9.825,2.482 0.114,0.008 0.217,0.017 0.331,0.035 l 0.963,0.052 c 0.338,0.017 0.677,0.025 1.015,0.017 2.056,0.026 4.088,-0.199 6.049,-0.756 0.114,-0.025 0.226,-0.06 0.331,-0.095 0.207,-0.061 0.407,-0.121 0.607,-0.192 1.277,-0.434 2.525,-1.005 3.705,-1.743 C -2.068,15.25 0.268,7.386 0,0" /></g><g
         transform="matrix(0.58359272,0,0,0.58359272,1091.204,225.77859)"
         id="g893"><path
           inkscape:connector-curvature="0"
           id="path895"
           style="fill:#4dc4ce;fill-opacity:1;fill-rule:nonzero;stroke:none"
           d="m 0,0 -0.071,-46.119 -0.019,-12.958 -0.015,-8.661 c 0,-1.06 0.009,-2.162 -0.462,-3.048 -0.062,-0.128 -0.146,-0.251 -0.242,-0.371 -0.042,-0.062 -0.097,-0.124 -0.157,-0.182 -0.043,-0.043 -0.079,-0.081 -0.12,-0.124 -0.011,-0.01 -0.027,-0.016 -0.036,-0.026 -0.008,-0.006 -0.024,-0.022 -0.034,-0.022 -0.115,-0.107 -0.235,-0.195 -0.356,-0.278 -0.088,-0.053 -0.183,-0.107 -0.278,-0.158 -0.556,-0.259 -1.276,-0.452 -2.092,-0.602 -0.182,-0.024 -0.365,-0.048 -0.547,-0.077 -0.165,-0.016 -0.328,-0.035 -0.483,-0.051 -2.164,-0.252 -4.343,-0.225 -6.521,-0.225 h -9.572 c -5.189,0.011 -10.005,1.621 -13.982,4.372 -0.563,0.401 -1.12,0.819 -1.647,1.252 -0.607,0.503 -1.189,1.033 -1.745,1.589 -0.279,0.276 -0.547,0.562 -0.808,0.851 -1.059,1.17 -2.005,2.43 -2.829,3.781 -0.408,0.677 -0.789,1.372 -1.138,2.09 -0.347,0.714 -0.649,1.452 -0.929,2.207 -0.138,0.372 -0.268,0.757 -0.388,1.137 -0.271,0.859 -0.488,1.744 -0.661,2.649 -0.088,0.449 -0.158,0.899 -0.227,1.359 -0.058,0.46 -0.103,0.921 -0.146,1.391 -0.042,0.643 -0.071,1.301 -0.071,1.959 l 0.035,23.042 0.011,6.539 c -0.011,0.728 -0.046,1.456 -0.132,2.178 -0.061,0.624 -0.147,1.247 -0.267,1.868 -0.027,0.171 -0.06,0.342 -0.106,0.516 -0.079,0.372 -0.165,0.739 -0.261,1.105 -0.104,0.388 -0.216,0.771 -0.336,1.151 -1.823,5.79 -5.842,10.643 -11.042,13.495 -0.258,0.161 -0.528,0.305 -0.798,0.428 -0.201,0.113 -0.398,0.209 -0.605,0.306 -0.036,0.015 -0.069,0.032 -0.106,0.04 -0.305,0.149 -0.608,0.286 -0.919,0.409 -0.243,0.102 -0.495,0.198 -0.74,0.284 -0.234,0.091 -0.476,0.176 -0.721,0.254 -0.275,0.093 -0.567,0.168 -0.849,0.251 -1.254,0.356 -2.538,0.613 -3.862,0.758 -0.755,0.085 -1.52,0.128 -2.289,0.128 -0.868,0 -1.719,-0.027 -2.572,-0.08 -2.829,-0.172 -5.561,-0.642 -8.199,-1.344 0.13,0.043 0.26,0.086 0.397,0.129 0.061,0.027 1.107,0.35 1.661,0.514 4.149,1.327 6.907,1.926 11.202,2.75 10.624,2.022 21.576,2.518 32.363,1.561 1.331,-0.112 2.656,-0.26 3.976,-0.416 1.754,-0.208 3.505,-0.46 5.24,-0.743 0.792,-0.132 1.589,-0.273 2.38,-0.418 0.883,-0.166 1.769,-0.34 2.657,-0.522 0.111,-0.023 0.223,-0.05 0.344,-0.077 1.156,-0.244 2.301,-0.503 3.447,-0.781 0.668,-0.166 1.334,-0.332 1.998,-0.503 C -9.097,3.342 -4.646,1.822 -0.237,0.094 -0.158,0.061 -0.081,0.024 0,0" /></g><g
         transform="matrix(0.58359272,0,0,0.58359272,1063.9901,218.85356)"
         id="g897"><path
           inkscape:connector-curvature="0"
           id="path899"
           style="fill:#ee1a97;fill-opacity:1;fill-rule:nonzero;stroke:none"
           d="M 0,0 C -1.842,5.72 -5.859,10.59 -11.042,13.496 -5.842,10.643 -1.823,5.79 0,0" /></g><g
         transform="matrix(0.58359272,0,0,0.58359272,1091.0659,225.83327)"
         id="g901"><path
           inkscape:connector-curvature="0"
           id="path903"
           style="fill:#ee1a97;fill-opacity:1;fill-rule:nonzero;stroke:none"
           d="M 0,0 C -4.409,1.729 -8.86,3.248 -13.433,4.463 -8.868,3.264 -4.373,1.779 0,0" /></g><g
         transform="matrix(0.58359272,0,0,0.58359272,1091.279,266.48979)"
         id="g905"><path
           inkscape:connector-curvature="0"
           id="path907"
           style="fill:#4dc4ce;fill-opacity:1;fill-rule:nonzero;stroke:none"
           d="m 0,0 -0.024,-17.54 v -0.112 l -0.019,-11.666 v -1.319 c -0.009,0 -0.018,-0.008 -0.027,-0.008 -0.435,-0.122 -0.868,-0.251 -1.311,-0.372 -0.026,0 -0.042,-0.009 -0.069,-0.017 -0.008,0 -0.026,-0.01 -0.034,-0.01 -0.044,-0.008 -0.086,-0.017 -0.132,-0.036 -0.016,-0.008 -0.042,-0.008 -0.06,-0.016 -0.12,-0.035 -0.234,-0.061 -0.355,-0.095 -4.677,-1.233 -9.416,-2.127 -14.232,-2.56 -0.437,-0.044 -0.87,-0.079 -1.304,-0.105 -0.381,-0.025 -0.753,-0.052 -1.138,-0.069 -0.284,-0.018 -0.57,-0.035 -0.856,-0.043 -0.176,-0.009 -0.348,-0.017 -0.522,-0.027 v 0.01 c -3.283,6.794 -9.565,12.105 -16.048,15.733 -5.84,3.274 -13.6,6.18 -20.36,4.315 -0.07,2.437 0.182,4.851 0.72,7.203 0,0.008 0,0.017 0.009,0.026 0.07,0.329 0.147,0.65 0.235,0.981 0.009,0.025 0.018,0.052 0.026,0.087 0.832,3.211 2.168,6.309 3.851,9.198 0.236,0.418 0.489,0.834 0.739,1.241 0.027,0.045 0.053,0.077 0.079,0.123 0.15,0.234 0.295,0.468 0.452,0.702 1.224,1.865 2.577,3.628 4.017,5.276 2.145,2.449 4.584,4.756 7.238,6.779 0.217,0.165 0.433,0.322 0.661,0.486 0.294,0.216 0.591,0.417 0.884,0.626 3.065,2.125 6.405,3.853 9.929,4.955 0.442,0.146 0.894,0.278 1.336,0.4 0.383,0.103 0.764,0.198 1.146,0.285 0.234,0.052 0.469,0.104 0.712,0.156 h 0.007 c 0.078,0.018 0.149,0.027 0.226,0.044 h 0.069 c 0.096,0 0.201,0 0.295,-0.01 0.046,0 0.082,0 0.122,-0.007 0.392,0 0.8,-0.017 1.18,-0.071 0.15,-0.008 0.306,-0.016 0.462,-0.033 0.147,-0.01 0.294,-0.027 0.45,-0.052 0.809,-0.095 1.614,-0.217 2.396,-0.408 0.007,0 0.027,0 0.042,-0.011 0.314,-0.068 0.637,-0.147 0.947,-0.225 0.011,-0.007 0.011,-0.007 0.017,-0.007 0.287,-0.078 0.564,-0.156 0.851,-0.252 0.061,-0.01 0.122,-0.026 0.184,-0.053 0.216,-0.06 0.441,-0.137 0.659,-0.216 0.035,-0.008 0.06,-0.018 0.095,-0.036 0.201,-0.069 0.407,-0.137 0.599,-0.216 0.051,-0.017 0.113,-0.035 0.164,-0.07 0.166,-0.06 0.329,-0.12 0.485,-0.191 0.166,-0.06 0.332,-0.129 0.487,-0.207 0.016,0 0.035,-0.009 0.042,-0.017 0.809,-0.348 1.589,-0.748 2.346,-1.19 1.066,-0.574 2.117,-1.293 3.037,-2.075 0.166,-0.12 0.329,-0.259 0.494,-0.4 l 0.009,-0.008 c 0.226,-0.19 0.442,-0.373 0.658,-0.58 0.046,-0.027 0.081,-0.07 0.123,-0.105 0.008,-0.009 0.018,-0.017 0.026,-0.026 0.008,-0.01 0.025,-0.018 0.033,-0.035 0.02,-0.017 0.035,-0.026 0.054,-0.043 0.104,-0.095 0.207,-0.191 0.311,-0.294 0.089,-0.079 0.184,-0.166 0.269,-0.261 0.097,-0.087 0.182,-0.181 0.269,-0.269 0.193,-0.201 0.384,-0.4 0.574,-0.599 0.062,-0.07 0.131,-0.149 0.191,-0.217 0.018,-0.018 0.035,-0.043 0.06,-0.062 0.433,-0.495 0.867,-0.998 1.253,-1.527 0.068,-0.086 0.128,-0.174 0.188,-0.259 0.668,-0.885 1.302,-1.831 1.797,-2.821 0.052,-0.104 0.105,-0.199 0.157,-0.287 0.112,-0.199 0.216,-0.409 0.313,-0.616 0.006,-0.026 0.024,-0.052 0.033,-0.078 0.07,-0.148 0.131,-0.294 0.208,-0.434 0.026,-0.053 0.045,-0.094 0.072,-0.148 0.052,-0.112 0.093,-0.218 0.144,-0.321 0.202,-0.495 0.383,-0.988 0.558,-1.493 0.07,-0.182 0.13,-0.365 0.19,-0.556 0.114,-0.321 0.209,-0.641 0.313,-0.971 0.009,-0.045 0.024,-0.086 0.036,-0.14 0.069,-0.232 0.138,-0.477 0.2,-0.719 C -0.721,5.85 -0.677,5.676 -0.643,5.502 -0.591,5.278 -0.54,5.061 -0.495,4.835 -0.252,3.74 -0.104,2.63 -0.052,1.494 -0.033,1.285 -0.024,1.077 -0.024,0.86 -0.009,0.573 0,0.288 0,0" /></g><g
         transform="matrix(0.58359272,0,0,0.58359272,1041.228,262.74692)"
         id="g909"><path
           inkscape:connector-curvature="0"
           id="path911"
           style="fill:#4dc4ce;fill-opacity:1;fill-rule:nonzero;stroke:none"
           d="m 0,0 c -0.009,-0.017 -0.019,-0.044 -0.019,-0.06 -0.199,-0.609 -0.408,-1.216 -0.615,-1.824 -0.19,-0.59 -0.4,-1.188 -0.607,-1.786 -0.211,-0.61 -0.427,-1.225 -0.644,-1.832 -0.19,-0.538 -0.383,-1.077 -0.582,-1.614 -0.684,-1.891 -1.403,-3.776 -2.151,-5.641 -0.244,-0.6 -0.478,-1.191 -0.728,-1.781 -0.495,-1.196 -1.007,-2.377 -1.53,-3.557 -0.257,-0.59 -0.529,-1.18 -0.798,-1.762 -0.71,-1.553 -1.45,-3.082 -2.22,-4.599 -0.236,-0.46 -0.469,-0.921 -0.712,-1.38 -0.026,-0.062 -0.062,-0.13 -0.097,-0.194 -0.034,-0.058 -0.06,-0.109 -0.096,-0.171 -0.25,-0.477 -0.503,-0.955 -0.762,-1.424 -0.287,-0.537 -0.581,-1.067 -0.886,-1.587 -0.294,-0.53 -0.599,-1.05 -0.902,-1.571 -0.303,-0.531 -0.618,-1.043 -0.928,-1.562 -0.312,-0.522 -0.634,-1.033 -0.955,-1.545 -0.729,-1.154 -1.468,-2.3 -2.232,-3.421 -0.249,-0.372 -0.503,-0.744 -0.761,-1.119 -0.748,-1.076 -1.512,-2.144 -2.284,-3.193 -2.1,-2.839 -4.331,-5.581 -6.664,-8.237 -0.774,-0.868 -1.564,-1.727 -2.355,-2.578 -0.008,-0.008 -0.008,-0.008 -0.016,-0.017 -0.018,-0.016 -0.033,-0.035 -0.044,-0.043 -0.415,-0.452 -0.834,-0.893 -1.258,-1.336 -0.824,-0.869 -1.657,-1.727 -2.508,-2.569 -0.025,-0.027 -0.051,-0.053 -0.07,-0.069 -0.434,-0.426 -0.866,-0.851 -1.303,-1.269 -10.508,-1.049 -20.768,-4.286 -30.286,-8.816 -9.418,-4.471 -18.209,-10.293 -25.967,-17.247 -2.075,-1.865 -4.081,-3.807 -5.989,-5.83 -0.036,-0.035 -0.07,-0.061 -0.095,-0.096 -8.308,-0.573 -16.812,0.583 -24.381,4.163 -0.337,0.161 -0.676,0.332 -1.005,0.514 -0.242,0.123 -0.487,0.246 -0.729,0.375 -0.339,0.173 -0.669,0.355 -0.998,0.545 -0.452,0.252 -0.887,0.519 -1.321,0.792 -0.433,0.273 -0.865,0.554 -1.292,0.84 -3.383,2.307 -6.396,5.111 -8.975,8.295 -0.31,0.393 -0.614,0.784 -0.918,1.182 -0.27,0.356 -0.539,0.723 -0.789,1.095 -0.228,0.313 -0.444,0.634 -0.652,0.955 -0.417,0.596 -0.798,1.196 -1.172,1.822 -5.668,9.45 -7.898,20.472 -8.001,31.444 -0.009,0.389 -0.009,0.771 -0.009,1.153 -0.008,0.416 0,0.833 0.017,1.25 0,0.391 0.009,0.788 0.025,1.179 0.011,0.47 0.027,0.938 0.053,1.409 0.009,0.337 0.028,0.675 0.053,1.014 0.024,0.58 0.067,1.162 0.111,1.744 0.044,0.582 0.087,1.155 0.15,1.727 0.016,0.217 0.032,0.426 0.058,0.635 v 0.033 c 8.491,-5.961 17.992,-10.484 27.93,-13.452 4.875,-1.458 9.868,-2.542 14.911,-3.264 1.03,-0.146 2.074,-0.286 3.115,-0.416 0.329,-0.044 0.668,-0.077 0.999,-0.111 3.461,-0.401 6.986,-0.651 10.44,-0.566 0.355,0.01 0.704,0.018 1.058,0.035 0.304,0 0.617,0 0.919,0.008 h 0.625 c 0.575,0 1.148,0.019 1.719,0.035 0.248,0.009 0.491,0.016 0.733,0.024 0.026,10e-4 0.051,0.003 0.078,0.004 0.594,0.025 1.2,0.059 1.783,0.103 0.07,0.009 0.149,0.009 0.217,0.017 0.356,0.016 0.721,0.035 1.075,0.062 0.054,0 0.116,0 0.169,0.008 0.946,0.069 1.916,0.242 2.853,0.242 0.409,0.043 0.815,0.078 1.225,0.131 1.621,0.13 3.253,0.381 4.858,0.642 l 0.34,0.052 c 0.625,0.087 1.242,0.217 1.857,0.312 0.181,0.035 0.373,0.062 0.563,0.097 0.031,0.003 0.061,0.007 0.087,0.013 0.052,0.008 0.103,0.017 0.155,0.027 0.177,0.038 0.363,0.071 0.53,0.123 3.117,0.625 6.224,1.32 9.271,2.231 0.008,0 0.027,0.008 0.034,0.008 0.226,0.062 0.46,0.13 0.686,0.199 0.035,0.011 0.078,0.027 0.112,0.037 0.01,0 0.01,0 0.017,0.008 0.731,0.2 1.458,0.417 2.179,0.651 0.297,0.086 0.59,0.182 0.876,0.288 0.348,0.119 0.696,0.241 1.042,0.364 0.339,0.12 0.687,0.259 1.018,0.388 0.217,0.08 0.432,0.158 0.65,0.236 0.01,0.01 0.026,0.01 0.035,0.018 2.324,0.849 4.625,1.778 6.863,2.837 0.07,0.026 0.13,0.053 0.201,0.086 0.025,0.009 0.052,0.025 0.077,0.036 0.755,0.381 1.536,0.721 2.292,1.102 0.312,0.138 0.623,0.287 0.938,0.432 0.623,0.304 1.232,0.644 1.838,0.973 0.295,0.174 0.599,0.348 0.894,0.513 0.417,0.216 0.815,0.452 1.225,0.686 0.051,0.024 0.096,0.052 0.146,0.087 0.061,0.033 0.123,0.068 0.183,0.095 0.476,0.265 0.942,0.538 1.416,0.81 0.668,0.4 1.339,0.795 1.997,1.211 0.031,0.019 0.067,0.043 0.103,0.071 0.46,0.286 0.917,0.581 1.379,0.892 0.383,0.244 0.764,0.506 1.137,0.764 0.579,0.4 1.155,0.808 1.717,1.224 0.157,0.105 0.314,0.217 0.471,0.339 0.155,0.104 0.303,0.217 0.46,0.33 0.006,0 0.024,0.008 0.041,0.026 3.073,2.239 5.999,4.686 8.785,7.28 h 0.017 l 4.895,4.591 z" /></g><g
         transform="matrix(0.58359272,0,0,0.58359272,939.13055,261.35884)"
         id="g913"><path
           inkscape:connector-curvature="0"
           id="path915"
           style="fill:#4dc4ce;fill-opacity:1;fill-rule:nonzero;stroke:none"
           d="m 0,0 c -0.009,-0.008 -0.009,-0.008 -0.02,-0.017 -0.345,-0.338 -0.693,-0.676 -1.049,-1.016 -0.435,-0.407 -0.876,-0.815 -1.328,-1.224 -0.276,-0.241 -0.547,-0.484 -0.835,-0.729 -0.276,-0.241 -0.554,-0.486 -0.842,-0.72 -4.164,-3.481 -8.868,-6.483 -13.894,-8.513 -0.729,-0.287 -1.449,-0.556 -2.186,-0.807 -0.139,-0.043 -0.278,-0.095 -0.419,-0.141 -0.258,-0.085 -0.527,-0.164 -0.789,-0.242 -0.162,-0.051 -0.328,-0.103 -0.503,-0.147 -0.364,-0.104 -0.729,-0.207 -1.101,-0.294 -0.131,-0.046 -0.269,-0.071 -0.399,-0.106 -0.27,-0.06 -0.531,-0.12 -0.798,-0.182 -0.01,0 -0.01,0 -0.019,-0.007 -0.094,-0.009 -0.198,-0.036 -0.294,-0.061 -0.07,-0.018 -0.14,-0.027 -0.2,-0.035 -0.278,-0.052 -0.547,-0.114 -0.825,-0.156 -0.509,-0.091 -1.017,-0.166 -1.527,-0.232 -0.873,-0.119 -1.748,-0.214 -2.631,-0.263 -0.274,-0.018 -0.563,-0.027 -0.84,-0.035 -1.451,-0.035 -2.917,0.025 -4.392,0.2 -0.469,0.051 -0.946,0.121 -1.414,0.2 0,0.035 -0.01,0.059 -0.019,0.095 -1.153,8.417 -4.165,16.871 -9.458,23.596 -4.801,6.094 -11.43,10.432 -18.955,12.325 -0.088,0.591 -0.158,1.189 -0.227,1.779 -0.06,0.608 -0.12,1.208 -0.172,1.814 -0.07,0.816 -0.122,1.634 -0.155,2.457 -0.046,0.79 -0.071,1.589 -0.09,2.386 -0.016,1.293 -0.007,2.596 0.035,3.915 v 0.061 l 12.847,-0.019 c 5.248,-0.129 10.423,-1.198 15.273,-3.131 0.321,-0.13 0.644,-0.261 0.963,-0.4 0.304,-0.132 0.617,-0.261 0.913,-0.4 0.302,-0.119 0.606,-0.26 0.9,-0.416 0.305,-0.146 0.601,-0.295 0.897,-0.443 0.58,-0.277 1.162,-0.59 1.733,-0.927 0.661,-0.374 1.311,-0.766 1.944,-1.163 0.523,-0.33 1.044,-0.678 1.545,-1.035 0.105,-0.069 0.202,-0.138 0.297,-0.206 0.062,-0.043 0.13,-0.089 0.19,-0.13 0.331,-0.228 0.65,-0.435 0.962,-0.68 0.707,-0.528 1.373,-1.075 2.034,-1.656 0.223,-0.182 0.441,-0.375 0.658,-0.565 0.294,-0.268 0.59,-0.537 0.884,-0.806 0.044,-0.035 0.078,-0.07 0.123,-0.113 0.051,-0.045 0.094,-0.087 0.146,-0.139 0.227,-0.2 0.452,-0.417 0.678,-0.634 0.121,-0.112 0.244,-0.217 0.364,-0.338 0.122,-0.113 0.244,-0.226 0.367,-0.339 2.507,-2.361 5.007,-4.722 7.515,-7.074 C -9.41,8.854 -4.705,4.427 0,0" /></g></g></g></svg>